<svg width="1131" height="185" viewBox="0 0 1131 185" fill="none" xmlns="http://www.w3.org/2000/svg">
<rect width="1131" height="185" fill="black" fill-opacity="0"/>
<rect width="161" height="185" fill="black" fill-opacity="0"/>
<path d="M91.1321 117.804C91.1321 129.793 86.1659 139.027 76.2337 145.506C67.7955 151.08 57.2478 153.867 44.5906 153.867C34.8563 153.867 26.8412 153.186 20.5452 151.825C6.84841 148.974 0 146.447 0 144.243C0.0448978 143.644 0.176789 143.055 0.391532 142.494C1.2916 140.097 2.62145 136.502 4.38109 131.711C4.90088 129.316 5.80995 125.752 7.1083 121.018C7.69335 119.396 8.66655 118.586 10.0279 118.589C9.83439 118.589 12.7394 119.658 18.7428 121.797C24.7463 123.935 29.6629 125.005 33.4927 125.005C46.2152 125.005 52.5765 120.76 52.5765 112.27C52.5765 105.468 46.5404 102.066 34.4682 102.063C32.8436 102.063 30.7059 102.129 28.0552 102.259C25.4045 102.389 23.6516 102.453 22.7965 102.451C18.8385 102.451 16.6637 102.419 16.2721 102.357C13.4167 102.033 11.9889 100.931 11.9889 99.0508C11.9889 89.137 12.3782 82.9164 13.1568 80.3891C13.6766 78.7693 14.715 77.9584 16.2721 77.9561C18.4796 77.9561 21.7423 78.2324 26.0604 78.7851C30.3785 79.3377 33.6086 79.6129 35.7508 79.6107C38.5387 79.6107 40.8587 78.6873 42.7106 76.8407C44.5625 74.9941 45.4873 72.6442 45.485 69.7912C45.485 62.153 39.9035 58.334 28.7404 58.334C24.0645 58.334 17.7359 59.5976 9.75451 62.125C9.4657 62.1845 9.17182 62.2161 8.87694 62.2193C8.03313 62.2193 7.31982 61.3129 6.73702 59.4999C6.60426 56.7772 6.4085 53.6669 6.14973 50.169C6.08672 49.3895 5.89208 47.8338 5.56581 45.5019C5.33622 43.9889 5.20656 42.4625 5.17765 40.9325C5.17765 37.4999 10.5004 34.8434 21.146 32.963C28.1753 31.6886 35.3031 31.0323 42.4473 31.0018C53.4732 31.0018 63.1489 33.4314 71.4746 38.2906C81.5328 44.1316 86.5631 52.1999 86.5654 62.4956C86.5654 74.355 81.1773 83.3623 70.4012 89.5178C76.7625 91.6587 81.8096 95.2531 85.5426 100.301C89.2757 105.349 91.1388 111.183 91.1321 117.804Z" fill="white"/>
<path d="M161 3.61576V53.8252C156.441 52.538 152.917 51.8944 150.429 51.8944C145.663 51.8944 141.57 53.3546 138.149 56.2751C134.729 59.1955 133.019 62.7237 133.019 66.8595C133.019 70.391 134.884 74.8672 138.615 80.288L143.449 87.2769C152.155 99.8461 156.506 111.977 156.504 123.67C156.504 140.8 149.172 155.302 134.508 167.177C119.843 179.052 101.936 184.993 80.7869 185C70.6273 185 60.5747 183.064 50.6289 179.191V128.196C56.6369 131.381 61.9743 132.974 66.6412 132.974C72.1316 132.974 76.7174 131.661 80.3987 129.035C84.08 126.409 85.9195 123.117 85.9173 119.158C85.9173 116.577 82.9639 110.939 77.0572 102.245C67.6245 88.4765 62.9081 74.7065 62.9081 60.9354C62.9081 44.3248 70.0333 30.0167 84.2836 18.0114C98.534 6.00605 115.555 0.0022547 135.348 8.1894e-06C144.026 -0.00364294 152.662 1.21357 161 3.61576V3.61576Z" fill="#4488BB"/>
<path d="M224.227 97.5V90H256.727V97.5H224.227ZM341.715 125H328.115L321.415 94.6L314.115 125H301.115L297.715 55H305.415L308.415 119.5L317.415 84.5H325.615L334.715 119.5L337.815 55H345.115L341.715 125ZM373.125 125C367.258 125 362.958 123.767 360.225 121.3C357.492 118.767 356.125 114.667 356.125 109V91C356.125 85.2667 357.358 81.1667 359.825 78.7C362.292 76.2333 366.392 75 372.125 75H374.825C379.558 75 383.125 76.3333 385.525 79C387.992 81.6 389.225 85.4333 389.225 90.5V103.5H364.625V111C364.625 113.067 365.258 114.667 366.525 115.8C367.792 116.933 369.658 117.5 372.125 117.5H386.025V125H373.125ZM380.925 96V88.5C380.925 86.7667 380.358 85.3333 379.225 84.2C378.092 83.0667 376.658 82.5 374.925 82.5H371.125C368.725 82.5 367.025 83.0667 366.025 84.2C365.092 85.2667 364.625 86.8667 364.625 89V96H380.925ZM429.684 75H437.684V77.4C439.75 75.8 442.417 75 445.684 75H446.284C452.35 75 456.684 76.5333 459.284 79.6C461.75 76.5333 465.184 75 469.584 75H470.184C475.584 75 479.584 76.2667 482.184 78.8C484.85 81.3333 486.184 85.4 486.184 91V125H477.684V89C477.684 87 477.084 85.4333 475.884 84.3C474.75 83.1 473.184 82.5 471.184 82.5H468.584C466.517 82.5 464.95 83.1333 463.884 84.4C462.884 85.6 462.317 86.9 462.184 88.3V125H453.684V89C453.684 87 453.117 85.4333 451.984 84.3C450.85 83.1 449.284 82.5 447.284 82.5H444.684C442.55 82.5 440.917 83.0667 439.784 84.2C438.717 85.2667 438.184 86.4333 438.184 87.7V125H429.684V75ZM531.156 125C530.29 125 529.323 124.733 528.256 124.2C527.256 123.667 526.39 122.933 525.656 122C524.123 124 522.09 125 519.556 125H512.656C507.59 125 503.89 124 501.556 122C499.29 119.933 498.156 116.433 498.156 111.5V109.5C498.156 99.1667 503.023 94 512.756 94H523.156V89C523.156 86.9333 522.523 85.3333 521.256 84.2C519.99 83.0667 518.123 82.5 515.656 82.5H502.156V75H514.656C520.456 75 524.723 76.2667 527.456 78.8C530.256 81.3333 531.656 85.4 531.656 91V115C531.656 116 532.023 116.767 532.756 117.3C533.556 117.767 534.856 118 536.656 118V125H531.156ZM518.556 117.5C520.556 117.5 521.823 117.033 522.356 116.1C522.89 115.167 523.156 113.967 523.156 112.5V101.5H512.656C510.923 101.5 509.49 102.067 508.356 103.2C507.223 104.333 506.656 105.767 506.656 107.5V112.5C506.656 114.233 507.056 115.5 507.856 116.3C508.656 117.1 509.923 117.5 511.656 117.5H518.556ZM573.629 125L559.929 100.3L557.129 103.6V125H548.629V55H557.129V92.4L572.129 75H582.829L565.929 94.3L583.529 125H573.629ZM609.551 125C603.684 125 599.384 123.767 596.651 121.3C593.917 118.767 592.551 114.667 592.551 109V91C592.551 85.2667 593.784 81.1667 596.251 78.7C598.717 76.2333 602.817 75 608.551 75H611.251C615.984 75 619.551 76.3333 621.951 79C624.417 81.6 625.651 85.4333 625.651 90.5V103.5H601.051V111C601.051 113.067 601.684 114.667 602.951 115.8C604.217 116.933 606.084 117.5 608.551 117.5H622.451V125H609.551ZM617.351 96V88.5C617.351 86.7667 616.784 85.3333 615.651 84.2C614.517 83.0667 613.084 82.5 611.351 82.5H607.551C605.151 82.5 603.451 83.0667 602.451 84.2C601.517 85.2667 601.051 86.8667 601.051 89V96H617.351ZM662.609 125V117.7H669.609V62.3H662.609V55H685.309V62.3H678.309V117.7H685.309V125H662.609ZM715.448 62.6V125H706.748V62.6H691.348V55H730.848V62.6H715.448ZM766.305 55H774.805V77C776.805 75.6667 779.305 75 782.305 75H784.905C790.305 75 794.305 76.2667 796.905 78.8C799.571 81.3333 800.905 85.4 800.905 91V125H792.405V89C792.405 87 791.805 85.4333 790.605 84.3C789.471 83.1 787.905 82.5 785.905 82.5H781.305C779.171 82.5 777.538 83.0667 776.405 84.2C775.338 85.2667 774.805 86.4333 774.805 87.7V125H766.305V55ZM845.902 125C845.036 125 844.069 124.733 843.002 124.2C842.002 123.667 841.136 122.933 840.402 122C838.869 124 836.836 125 834.302 125H827.402C822.336 125 818.636 124 816.302 122C814.036 119.933 812.902 116.433 812.902 111.5V109.5C812.902 99.1667 817.769 94 827.502 94H837.902V89C837.902 86.9333 837.269 85.3333 836.002 84.2C834.736 83.0667 832.869 82.5 830.402 82.5H816.902V75H829.402C835.202 75 839.469 76.2667 842.202 78.8C845.002 81.3333 846.402 85.4 846.402 91V115C846.402 116 846.769 116.767 847.502 117.3C848.302 117.767 849.602 118 851.402 118V125H845.902ZM833.302 117.5C835.302 117.5 836.569 117.033 837.102 116.1C837.636 115.167 837.902 113.967 837.902 112.5V101.5H827.402C825.669 101.5 824.236 102.067 823.102 103.2C821.969 104.333 821.402 105.767 821.402 107.5V112.5C821.402 114.233 821.802 115.5 822.602 116.3C823.402 117.1 824.669 117.5 826.402 117.5H833.302ZM863.375 75H871.375V77.4C873.442 75.8 876.108 75 879.375 75H880.975C886.842 75 891.142 76.2667 893.875 78.8C896.608 81.2667 897.975 85.3333 897.975 91V109C897.975 114.6 896.575 118.667 893.775 121.2C891.042 123.733 886.775 125 880.975 125H871.875V142H863.375V75ZM878.375 82.5C876.175 82.5 874.542 83.1 873.475 84.3C872.408 85.4333 871.875 86.6667 871.875 88V117.5H881.975C884.442 117.5 886.308 116.933 887.575 115.8C888.842 114.667 889.475 113.067 889.475 111V89C889.475 86.9333 888.842 85.3333 887.575 84.2C886.308 83.0667 884.442 82.5 881.975 82.5H878.375ZM912.984 75H920.984V77.4C923.051 75.8 925.718 75 928.984 75H930.584C936.451 75 940.751 76.2667 943.484 78.8C946.218 81.2667 947.584 85.3333 947.584 91V109C947.584 114.6 946.184 118.667 943.384 121.2C940.651 123.733 936.384 125 930.584 125H921.484V142H912.984V75ZM927.984 82.5C925.784 82.5 924.151 83.1 923.084 84.3C922.018 85.4333 921.484 86.6667 921.484 88V117.5H931.584C934.051 117.5 935.918 116.933 937.184 115.8C938.451 114.667 939.084 113.067 939.084 111V89C939.084 86.9333 938.451 85.3333 937.184 84.2C935.918 83.0667 934.051 82.5 931.584 82.5H927.984ZM978.594 125C972.727 125 968.427 123.767 965.694 121.3C962.96 118.767 961.594 114.667 961.594 109V91C961.594 85.2667 962.827 81.1667 965.294 78.7C967.76 76.2333 971.86 75 977.594 75H980.294C985.027 75 988.594 76.3333 990.994 79C993.46 81.6 994.694 85.4333 994.694 90.5V103.5H970.094V111C970.094 113.067 970.727 114.667 971.994 115.8C973.26 116.933 975.127 117.5 977.594 117.5H991.494V125H978.594ZM986.394 96V88.5C986.394 86.7667 985.827 85.3333 984.694 84.2C983.56 83.0667 982.127 82.5 980.394 82.5H976.594C974.194 82.5 972.494 83.0667 971.494 84.2C970.56 85.2667 970.094 86.8667 970.094 89V96H986.394ZM1009.18 75H1017.18V77.4C1019.24 75.8 1021.91 75 1025.18 75H1027.78C1033.18 75 1037.18 76.2667 1039.78 78.8C1042.44 81.3333 1043.78 85.4 1043.78 91V125H1035.28V89C1035.28 87 1034.68 85.4333 1033.48 84.3C1032.34 83.1 1030.78 82.5 1028.78 82.5H1024.18C1021.98 82.5 1020.34 83.1 1019.28 84.3C1018.21 85.4333 1017.68 86.6667 1017.68 88V125H1009.18V75ZM1059.47 104.2V55H1067.97V104.2H1059.47ZM1058.77 125V115H1068.77V125H1058.77Z" fill="#4488BB"/>
</svg>
