<svg width="586" height="561" viewBox="0 0 586 561" fill="none" xmlns="http://www.w3.org/2000/svg">
<rect width="586" height="561" fill="black" fill-opacity="0"/>
<path d="M329.137 341.672C329.137 376.447 314.767 403.229 286.027 422.021C261.61 438.186 231.089 446.269 194.464 446.269C166.297 446.269 143.104 444.294 124.886 440.346C85.2532 432.078 65.4366 424.747 65.4366 418.355C65.5666 416.619 65.9482 414.91 66.5696 413.283C69.174 406.331 73.0221 395.906 78.1138 382.008C79.6178 375.062 82.2483 364.725 86.0052 350.996C87.6981 346.292 90.5142 343.943 94.4534 343.95C93.8935 343.95 102.299 347.051 119.671 353.254C137.043 359.457 151.269 362.558 162.351 362.558C199.165 362.558 217.572 350.247 217.572 325.624C217.572 305.895 200.106 296.027 165.174 296.02C160.473 296.02 154.287 296.209 146.617 296.587C138.947 296.965 133.875 297.151 131.401 297.144C119.948 297.144 113.655 297.053 112.522 296.871C104.259 295.932 100.128 292.736 100.128 287.283C100.128 258.529 101.254 240.487 103.507 233.157C105.011 228.459 108.016 226.107 112.522 226.101C118.909 226.101 128.35 226.902 140.845 228.505C153.34 230.108 162.687 230.906 168.885 230.899C176.952 230.899 183.665 228.221 189.024 222.866C194.383 217.51 197.059 210.694 197.052 202.419C197.052 180.266 180.901 169.189 148.6 169.189C135.07 169.189 116.757 172.854 93.6623 180.185C92.8266 180.357 91.9762 180.449 91.123 180.458C88.6813 180.458 86.6173 177.829 84.9309 172.571C84.5468 164.674 83.9803 155.653 83.2315 145.508C83.0492 143.247 82.486 138.735 81.5419 131.972C80.8776 127.584 80.5024 123.156 80.4187 118.719C80.4187 108.763 95.8207 101.058 126.625 95.6046C146.965 91.9082 167.59 90.0049 188.262 89.9164C220.167 89.9164 248.164 96.9631 272.256 111.057C301.36 127.997 315.916 151.398 315.922 181.26C315.922 215.656 300.331 241.781 269.15 259.634C287.557 265.843 302.161 276.268 312.963 290.909C323.765 305.55 329.156 322.471 329.137 341.672Z" fill="white"/>
<path d="M531.307 10.487V156.112C518.115 152.379 507.919 150.512 500.717 150.512C486.927 150.512 475.083 154.747 465.186 163.218C455.289 171.688 450.341 181.921 450.341 193.916C450.341 204.159 455.739 217.142 466.534 232.864L480.52 253.134C505.711 289.589 518.304 324.774 518.297 358.688C518.297 408.37 497.081 450.432 454.648 484.874C412.215 519.316 360.4 536.547 299.202 536.566C269.804 536.566 240.716 530.95 211.937 519.717V371.814C229.321 381.053 244.766 385.673 258.27 385.673C274.157 385.673 287.426 381.864 298.079 374.248C308.731 366.631 314.054 357.082 314.047 345.601C314.047 338.115 305.501 321.764 288.41 296.548C261.115 256.614 247.468 216.676 247.468 176.735C247.468 128.558 268.085 87.0593 309.32 52.2395C350.555 17.4197 399.808 0.00653943 457.08 2.37522e-05C482.192 -0.0105658 507.18 3.5198 531.307 10.487V10.487Z" fill="#4488BB"/>
<path d="M586 412H255V561H586V412Z" fill="#DE8208"/>
<path d="M352.789 496.102L372.969 502.5C369.875 513.75 364.719 522.117 357.5 527.602C350.328 533.039 341.211 535.758 330.148 535.758C316.461 535.758 305.211 531.094 296.398 521.766C287.586 512.391 283.18 499.594 283.18 483.375C283.18 466.219 287.609 452.906 296.469 443.438C305.328 433.922 316.977 429.164 331.414 429.164C344.023 429.164 354.266 432.891 362.141 440.344C366.828 444.75 370.344 451.078 372.688 459.328L352.086 464.25C350.867 458.906 348.312 454.688 344.422 451.594C340.578 448.5 335.891 446.953 330.359 446.953C322.719 446.953 316.508 449.695 311.727 455.18C306.992 460.664 304.625 469.547 304.625 481.828C304.625 494.859 306.969 504.141 311.656 509.672C316.344 515.203 322.438 517.969 329.938 517.969C335.469 517.969 340.227 516.211 344.211 512.695C348.195 509.18 351.055 503.648 352.789 496.102ZM425.281 534V513.258H383.094V495.961L427.812 430.5H444.406V495.891H457.203V513.258H444.406V534H425.281ZM425.281 495.891V460.664L401.586 495.891H425.281ZM471.125 534V430.922H491.938V471.492H532.719V430.922H553.531V534H532.719V488.93H491.938V534H471.125Z" fill="white"/>
</svg>
