<svg width="161" height="185" viewBox="0 0 161 185" fill="none" xmlns="http://www.w3.org/2000/svg">
<rect width="161" height="185" fill="black" fill-opacity="0"/>
<path d="M91.1321 117.804C91.1321 129.793 86.1659 139.027 76.2337 145.506C67.7955 151.08 57.2478 153.867 44.5906 153.867C34.8563 153.867 26.8412 153.186 20.5452 151.825C6.84841 148.974 0 146.447 0 144.243C0.0448978 143.644 0.176789 143.055 0.391532 142.494C1.2916 140.097 2.62145 136.502 4.38109 131.711C4.90088 129.316 5.80995 125.752 7.1083 121.018C7.69335 119.396 8.66655 118.586 10.0279 118.589C9.83439 118.589 12.7394 119.658 18.7428 121.797C24.7463 123.935 29.6629 125.005 33.4927 125.005C46.2152 125.005 52.5765 120.76 52.5765 112.27C52.5765 105.468 46.5404 102.066 34.4682 102.063C32.8436 102.063 30.7059 102.129 28.0552 102.259C25.4045 102.389 23.6516 102.453 22.7965 102.451C18.8385 102.451 16.6637 102.419 16.2721 102.357C13.4167 102.033 11.9889 100.931 11.9889 99.0508C11.9889 89.137 12.3782 82.9164 13.1568 80.3891C13.6766 78.7693 14.715 77.9584 16.2721 77.9561C18.4796 77.9561 21.7423 78.2324 26.0604 78.7851C30.3785 79.3377 33.6086 79.6129 35.7508 79.6107C38.5387 79.6107 40.8587 78.6873 42.7106 76.8407C44.5625 74.9941 45.4873 72.6442 45.485 69.7912C45.485 62.153 39.9035 58.334 28.7404 58.334C24.0645 58.334 17.7359 59.5976 9.75451 62.125C9.4657 62.1845 9.17182 62.2161 8.87694 62.2193C8.03313 62.2193 7.31982 61.3129 6.73702 59.4999C6.60426 56.7772 6.4085 53.6669 6.14973 50.169C6.08672 49.3895 5.89208 47.8338 5.56581 45.5019C5.33622 43.9889 5.20656 42.4625 5.17765 40.9325C5.17765 37.4999 10.5004 34.8434 21.146 32.963C28.1753 31.6886 35.3031 31.0323 42.4473 31.0018C53.4732 31.0018 63.1489 33.4314 71.4746 38.2906C81.5328 44.1316 86.5631 52.1999 86.5654 62.4956C86.5654 74.355 81.1773 83.3623 70.4012 89.5178C76.7625 91.6587 81.8096 95.2531 85.5426 100.301C89.2757 105.349 91.1388 111.183 91.1321 117.804Z" fill="white"/>
<path d="M161 3.61576V53.8252C156.441 52.538 152.917 51.8944 150.429 51.8944C145.663 51.8944 141.57 53.3546 138.149 56.2751C134.729 59.1955 133.019 62.7237 133.019 66.8595C133.019 70.391 134.884 74.8672 138.615 80.288L143.449 87.2769C152.155 99.8461 156.506 111.977 156.504 123.67C156.504 140.8 149.172 155.302 134.508 167.177C119.843 179.052 101.936 184.993 80.7869 185C70.6273 185 60.5747 183.064 50.6289 179.191V128.196C56.6369 131.381 61.9743 132.974 66.6412 132.974C72.1316 132.974 76.7174 131.661 80.3987 129.035C84.08 126.409 85.9195 123.117 85.9173 119.158C85.9173 116.577 82.9639 110.939 77.0572 102.245C67.6245 88.4765 62.9081 74.7065 62.9081 60.9354C62.9081 44.3248 70.0333 30.0167 84.2836 18.0114C98.534 6.00605 115.555 0.0022547 135.348 8.1894e-06C144.026 -0.00364294 152.662 1.21357 161 3.61576V3.61576Z" fill="#4488BB"/>
</svg>
